<svg xmlns="http://www.w3.org/2000/svg" viewBox="0 0 256 256" width="256" height="256" fill="none">
  <defs>
    <linearGradient id="w" x1="0" y1="0" x2="1" y2="1">
      <stop offset="0%" stop-color="#25D366"/>
      <stop offset="100%" stop-color="#128C7E"/>
    </linearGradient>
  </defs>
  <rect width="256" height="256" rx="56" fill="url(#w)"/>
  <path fill="#fff" d="M128 56c-39.2 0-71 30.6-71 68.4 0 12.5 3.7 24.2 10.2 34.1L60 200l42.6-6.7c9.2 4.1 19.5 6.4 30.4 6.4 39.2 0 71-30.6 71-68.4S167.2 56 128 56zm0 18.2c29.1 0 52.8 22.8 52.8 50.8S157.1 176 128 176c-9.7 0-18.8-2.3-26.7-6.4l-1.9-1-25.4 4 4.9-24.1-1.1-1.7c-6-8.3-9.5-18.3-9.5-29 0-28 23.6-50.8 52.7-50.8z"/>
  <path fill="#fff" d="M149.4 141.9c-2.5 0-5-.8-7.6-1.9-2.4-1-5.1-2.3-7.9-4-13.9-8.2-22.9-21.3-25.1-25.9-2.2-4.6-2.2-8.5-1.9-11 .4-2.6 2.3-6 4.5-6.1 1.1 0 2.3.1 3.4.1 1 0 2.6-.4 4.1 3.2 1.6 3.8 5.4 13.1 5.8 14.1.4 1 .7 2.2.1 3.4-.6 1.2-.9 1.9-1.7 3-1 1.2-2.1 2.6-.9 4.9 1.2 2.3 5.2 8.6 11.3 13.9 7.8 6.8 14.4 9 16.7 10.2 2.3 1.2 3.6 1 4.9-.6 1.3-1.6 5.6-6.5 7.1-8.8 1.5-2.3 2.9-1.9 4.9-1.1 2 .8 12.8 6 15 7 .4.2.7.3 1 .5.3.3.5.8.2 1.5-.3.7-2.1 7.7-5.1 10.6-2.9 2.9-6 3.1-10.2 1.9-4.2-1.2-13-5.1-18.9-9.1z"/>
</svg>
